<?xml version="1.0" encoding="UTF-8"?>
<svg width="187px" height="48px" viewBox="0 0 187 48" version="1.1" xmlns="http://www.w3.org/2000/svg" xmlns:xlink="http://www.w3.org/1999/xlink">
    <title>Logo</title>
    <g id="Entwurf" stroke="none" stroke-width="1" fill="none" fill-rule="evenodd">
        <g id="1440/Startseite-B/Schalter-an" transform="translate(-92.000000, -68.000000)">
            <g id="Logo" transform="translate(91.999963, 68.000037)">
                <path d="M46.767491,0 L1.12241978,0 C0.502469924,0 0,0.503625 0,1.125 L0,46.875 C0,47.496375 0.502469924,48 1.12241978,48 L46.767491,48 C47.3874409,48 47.8899108,47.496375 47.8899108,46.875 L47.8899108,1.125 C47.8899108,0.503625 47.3874409,0 46.767491,0 L46.767491,0 Z" id="Path" fill="#F9FF00"></path>
                <path d="M23.3818748,6.5513465 C23.6896049,6.541875 23.9449554,6.789375 23.9449554,7.098 L23.9449554,10.37325 C23.9449554,10.6665 23.7133628,10.90575 23.4211595,10.917375 C16.4600991,11.1939375 10.8820469,16.956375 10.8820469,24 C10.8820469,31.043625 16.4600991,36.8060625 23.4211595,37.082625 C23.7133628,37.0940625 23.9449554,37.3335 23.9449554,37.6265625 L23.9449554,40.902 C23.9449554,41.2104375 23.6896049,41.458125 23.3818748,41.4484764 C14.037543,41.1493125 6.5278064,33.4370625 6.5278064,24 C6.5278064,14.56275 14.037543,6.8505 23.3818748,6.5513465 Z M32.6536235,10.9070625 C33.7764174,10.9070625 35.866363,10.9070625 37.7226583,11.8531875 C39.327291,12.6710089 41.2297348,14.429083 41.3556568,18.1776172 L41.3622915,18.5135625 L41.3621044,18.5754375 C41.3499449,20.9469375 40.6467489,22.5579375 39.7308543,23.6510625 C39.561556,23.853 39.561556,24.1468125 39.7308543,24.3489375 C40.6009542,25.3874062 41.2790935,26.893088 41.3551575,29.0743248 L41.3622915,29.424375 L41.3621044,29.4864375 C41.3419009,33.4666875 39.3744861,35.3049375 37.7226583,36.1468125 C35.9591778,37.0456312 33.9848278,37.0905722 32.8291461,37.0928192 L24.4891419,37.0929375 C24.1887076,37.0929375 23.9449554,36.848625 23.9449554,36.5473125 L23.9449554,33.274125 C23.9449554,32.9728125 24.1887076,32.7286875 24.4891419,32.7286875 L32.6536235,32.7286875 C35.6536645,32.7286875 36.9981363,32.2550625 37.0078639,29.4553125 C36.9981363,26.6555625 35.6536645,26.182125 32.6536235,26.182125 L24.4891419,26.182125 C24.1887076,26.182125 23.9449554,25.9378125 23.9449554,25.6365 L23.9449554,22.3633125 C23.9449554,22.062 24.1887076,21.817875 24.4891419,21.817875 L32.6536235,21.817875 C35.6536645,21.817875 36.9981363,21.34425 37.0078639,18.5445 C36.9981363,15.7449375 35.6536645,15.2713125 32.6536235,15.2713125 L24.4891419,15.2713125 C24.1887076,15.2713125 23.9449554,15.027 23.9449554,14.7256875 L23.9449554,11.4525 C23.9449554,11.1511875 24.1887076,10.9070625 24.4891419,10.9070625 L32.6536235,10.9070625 Z" id="Combined-Shape" fill="#000000"></path>
                <path d="M92.6533962,19.4634563 C95.144794,19.4634563 97.9594486,20.5033313 97.9594486,23.9636438 L97.9594486,32.7253313 L95.0003759,32.7253313 L95.0003759,30.9270188 L94.8982357,30.9270188 C94.3370258,32.0263313 93.1124659,32.9895188 91.0631144,32.9895188 C88.5717166,32.9895188 86.6924118,31.6258313 86.6924118,29.0518313 C86.6924118,26.1030188 89.1159031,25.3443938 91.6499529,25.0717688 C93.9542807,24.8244563 94.8812124,24.7818938 94.8812124,23.8955813 L94.8812124,23.8443938 C94.8812124,22.5573938 94.0988858,21.8244563 92.6704195,21.8244563 C91.1652546,21.8244563 90.2978112,22.5915188 89.9917647,23.4862688 L87.1176218,23.0773313 C87.7978082,20.6908313 89.9066479,19.4634563 92.6533962,19.4634563 Z M181.464263,19.463625 C184.525476,19.463625 186.294222,20.8783125 186.719432,23.094375 L183.913196,23.401125 C183.675243,22.5403125 182.926963,21.764625 181.506728,21.764625 C180.22268,21.764625 179.244865,22.3783125 179.253283,23.2648125 C179.244865,24.02325 179.772028,24.4835625 181.098541,24.781875 L183.326357,25.25925 C185.792501,25.7960625 186.991432,26.9383125 187.000037,28.8046875 C186.991432,31.2849375 184.687104,32.980875 181.421798,32.980875 C178.21598,32.980875 176.200488,31.5575625 175.818117,29.1541875 L178.819655,28.8643125 C179.083424,30.0406875 180.00175,30.6541875 181.413193,30.6541875 C182.875706,30.6541875 183.84529,29.980875 183.84529,29.0859375 C183.84529,28.3445625 183.28408,27.85875 182.085148,27.5945625 L179.856958,27.1258125 C177.348537,26.6056875 176.175047,25.344375 176.183652,23.43525 C176.175047,21.014625 178.317933,19.463625 181.464263,19.463625 Z M68.8754381,15.031575 C72.736001,15.031575 75.7122841,17.281575 76.2478654,21.1596375 L73.067676,21.1596375 C72.7019542,19.07145 71.0437661,17.8697625 68.9263211,17.8697625 C66.0778068,17.8697625 64.0709202,20.0601375 64.0709202,23.997825 C64.0709202,28.003575 66.0948302,30.1257 68.917903,30.1257 C71.0013012,30.1257 72.6679075,28.9752 73.067676,26.929575 L76.2478654,26.9466375 C75.7631671,30.2792625 73.0166059,32.9638875 68.8754381,32.9638875 C64.2836188,32.9638875 60.899149,29.63145 60.899149,23.997825 C60.899149,18.355575 64.3260837,15.031575 68.8754381,15.031575 Z M174.063775,15.27015 L174.063775,32.725275 L171.036422,32.725275 L171.036422,30.662775 L170.849352,30.662775 C170.364654,31.6173375 169.352792,32.955525 167.107766,32.955525 C164.029529,32.955525 161.725202,30.5094 161.725202,26.1967125 C161.725202,21.8328375 164.097623,19.4635875 167.116371,19.4635875 C169.420699,19.4635875 170.381677,20.852775 170.849352,21.7989 L170.976934,21.7989 L170.976934,15.27015 L174.063775,15.27015 Z M105.096355,14.4519562 C106.159286,14.4519562 107.035148,14.6735812 107.434729,14.8100812 L107.434729,14.8100812 L106.814031,17.1963937 C106.559055,17.1197062 106.150868,17.0088937 105.665983,17.0088937 C104.518309,17.0088937 104.092912,17.5800187 104.092912,18.6028312 L104.092912,18.6028312 L104.092912,19.6340812 L108.650684,19.6340812 L108.650684,16.4975812 L111.729107,16.4975812 L111.729107,19.6340812 L114.305622,19.6340812 L114.305622,22.0203937 L111.729107,22.0203937 L111.729107,28.7876437 C111.729107,30.0320812 112.349806,30.3048937 113.123714,30.3048937 C113.506459,30.3048937 113.854971,30.2282062 114.025017,30.1854562 L114.025017,30.1854562 L114.543575,32.5974562 C114.212087,32.7082687 113.608225,32.8787062 112.732551,32.9042062 C110.419618,32.9724562 108.633848,31.7621437 108.650684,29.2989562 L108.650684,29.2989562 L108.650684,22.0203937 L104.092912,22.0203937 L104.092912,32.7253312 L101.014675,32.7253312 L101.014675,22.0203937 L99.0844874,22.0203937 L99.0844874,19.6340812 L101.014675,19.6340812 L101.014675,18.3980812 C101.014675,15.7560187 102.826074,14.4519562 105.096355,14.4519562 Z M139.727588,19.6339875 L139.727588,27.4921125 C139.727588,29.1541125 140.714008,30.202425 142.193545,30.202425 C143.554105,30.202425 144.974153,29.213925 144.974153,27.2194875 L144.974153,19.6339875 L148.052389,19.6339875 L148.052389,32.7252375 L145.067688,32.7252375 L145.067688,30.39855 L144.931501,30.39855 C144.336431,31.864425 142.958848,32.895675 141.003031,32.895675 C138.435122,32.895675 136.649352,31.114425 136.649352,27.9694875 L136.649352,19.6339875 L139.727588,19.6339875 Z M84.8755134,19.4464875 C85.2157937,19.4464875 85.7003049,19.4806125 85.9809099,19.5318 L85.9809099,22.3698 C85.7173283,22.284675 85.0710016,22.190925 84.5524436,22.190925 C82.8602087,22.190925 81.6102072,23.3671125 81.6102072,25.028925 L81.6102072,32.7252375 L78.531971,32.7252375 L78.531971,19.6339875 L81.5166722,19.6339875 L81.5166722,21.815925 L81.6526721,21.815925 C82.1289522,20.298675 83.3787667,19.4464875 84.8755134,19.4464875 Z M128.670425,15.270225 C132.445871,15.270225 134.316571,17.1964125 134.316571,19.7959125 C134.316571,21.918225 132.973222,23.1112875 131.272569,23.511975 L131.272569,23.6824125 C133.126245,23.7761625 134.996944,25.32735 134.996944,27.9696 C134.996944,30.68835 133.041128,32.72535 129.05317,32.72535 L122.003626,32.72535 L122.003626,15.270225 L128.670425,15.270225 Z M153.814387,19.634025 L153.814387,32.725275 L150.736151,32.725275 L150.736151,19.634025 L153.814387,19.634025 Z M159.57689,15.27015 L159.57689,32.725275 L156.498654,32.725275 L156.498654,15.27015 L159.57689,15.27015 Z M94.8898176,26.4864563 C94.4900491,26.8102688 92.8745129,27.0150188 92.0665577,27.1258313 C90.6889745,27.3217688 89.6600897,27.8160188 89.6600897,29.0008313 C89.6600897,30.1344563 90.5784161,30.7222688 91.8624644,30.7222688 C93.7163277,30.7222688 94.8898176,29.4864563 94.8898176,28.0292063 L94.8898176,26.4864563 Z M167.966791,21.9948375 C165.91744,21.9948375 164.862926,23.74215 164.862926,26.17965 C164.862926,28.6344 165.934463,30.4240875 167.966791,30.4240875 C169.931026,30.4240875 171.036422,28.719525 171.036422,26.17965 C171.036422,23.639775 169.948049,21.9948375 167.966791,21.9948375 Z M128.636379,24.9694125 L125.158374,24.9694125 L125.158374,30.0831 L128.551449,30.0831 C130.83894,30.0831 131.791126,29.111475 131.791126,27.7222875 C131.791126,26.1626625 130.58359,24.9694125 128.636379,24.9694125 Z M128.347168,17.87835 L125.158374,17.87835 L125.158374,22.693725 L128.279262,22.693725 C129.920427,22.693725 131.161823,21.7391625 131.161823,20.2050375 C131.161823,18.8584125 130.201032,17.87835 128.347168,17.87835 Z M152.283781,14.4264 C153.261595,14.4264 154.061132,15.1764 154.061132,16.1054625 C154.061132,17.0259 153.261595,17.7760875 152.283781,17.7760875 C151.297361,17.7760875 150.498011,17.0259 150.498011,16.1054625 C150.498011,15.1764 151.297361,14.4264 152.283781,14.4264 Z" id="Combined-Shape" fill="#000000"></path>
            </g>
        </g>
    </g>
</svg>